# xmcd
#
# Track frame offsets: 
#        150
#        17503
#        29370
#        46484
#        70134
#        89691
#        107777
#        129540
#        146082
#        169544
#        187391
#        205508
#        217301
#        236519
#        255594
#        270386
#        285815
#        304835
#
# Disc length: 4295 seconds
#
# Revision: 0
# Processed by: cddbd v1.5.2PL0 Copyright (c) Steve Scherf et al.
# Submitted via: ExactAudioCopyFreeDBPlugin 1.0
#
DISCID=0810c512
DTITLE=Various Artist - Heart Melodies, romantic music instrumental
DYEAR=1900
DGENRE=Instrumental
TTITLE0=Continuados - El tren que nos separa
TTITLE1=Ritchie Valens - Oh donna
TTITLE2=Bryan Adams - Have you ever really loved a woman
TTITLE3=Elton John - Sacrifice
TTITLE4=Kenny Rogers - Lady
TTITLE5=Lobo - I'd love you to want me
TTITLE6=Foreigner - I want to know what love is
TTITLE7=Bee Gees - How deep is your love
TTITLE8=Roberta Flack - Killing my softly your song
TTITLE9=Bryan Adams - Everything I do, I do it for you
TTITLE10=Billy Joel - Honesty
TTITLE11=The Platters - Only you
TTITLE12=Phil Collins - One more night
TTITLE13=Chris de Burgh - Lady in red
TTITLE14=Nilsson - Without you
TTITLE15=Michael Jackson - I will be there
TTITLE16=Captain and Tennille - Do that to me one more time
TTITLE17=Stevie Wonder - I just called to say love you
EXTD=
EXTT0=
EXTT1=
EXTT2=
EXTT3=
EXTT4=
EXTT5=
EXTT6=
EXTT7=
EXTT8=
EXTT9=
EXTT10=
EXTT11=
EXTT12=
EXTT13=
EXTT14=
EXTT15=
EXTT16=
EXTT17=
PLAYORDER=
